<svg xmlns="http://www.w3.org/2000/svg" viewBox="0 0 100 64.19"><defs><style>.cls-1{fill:#ff5061;}</style></defs><title>pupIcon</title><g id="Layer_2" data-name="Layer 2"><g id="Layer_1-2" data-name="Layer 1"><path class="cls-1" d="M50,34.11h-.1c-3.89,0-6,2.19-6,6.17v.15c0,4,2.08,6.16,6,6.16H50c3.95,0,6-2.13,6-6.16v-.15C56.06,36.3,53.92,34.11,50,34.11Zm2.77,6.31c0,2.23-.65,2.9-2.77,2.9h-.1c-2.12,0-2.77-.67-2.77-2.9v-.15c0-2.2.67-2.91,2.77-2.91H50c2.1,0,2.77.71,2.77,2.91ZM29.86,23.72v-.15c0-3.2,1.48-4.53,4.4-4.53h.11c2.92,0,4.4,1.33,4.4,4.53v.15c0,3.21-1.48,4.53-4.4,4.53h-.11C31.35,28.25,29.86,26.93,29.86,23.72Zm31,0v-.15c0-3.2,1.48-4.53,4.4-4.53h.1c2.92,0,4.4,1.33,4.4,4.53v.15c0,3.21-1.48,4.53-4.4,4.53h-.1C62.38,28.25,60.9,26.93,60.9,23.72Zm31.92,8.41c-7-8.33-19.88-22.64-20-22.78l-.06,0C68.38,3.1,60.93,0,50.28,0h-.6C39,0,31.6,3.1,27.22,9.38l0,0c-.13.14-13,14.46-20,22.78C1.61,38.72-.5,43.11.1,46.83c.56,3.5,3.51,5.73,6.61,7.64a95.49,95.49,0,0,0,9.48,5,17.34,17.34,0,0,0,6.76,1.65,7.68,7.68,0,0,0,4.49-1.3,7.21,7.21,0,0,0,1.83-1.86c2.08,4.19,6.2,6.26,12.45,6.26H42a16.66,16.66,0,0,0,8-1.68,16.69,16.69,0,0,0,8,1.68h.29c6.26,0,10.38-2.08,12.46-6.29a6.91,6.91,0,0,0,1.85,1.89,7.65,7.65,0,0,0,4.48,1.3,17.38,17.38,0,0,0,6.77-1.65,96.18,96.18,0,0,0,9.47-5c3.1-1.9,6-4.14,6.61-7.64C100.5,43.11,98.38,38.72,92.82,32.13ZM49.68,3.26h.6c16.54,0,23.92,7.61,23.92,24.68v.87c0,5.33-1.68,9.71-3.07,13.27A10.51,10.51,0,0,0,67,37a8.66,8.66,0,0,0-1.06-.78l-.8-.51c-4.46-2.84-9.08-5.78-9.08-9.29V17.2c0-4-2.14-6.16-6-6.16h-.1c-3.89,0-6,2.19-6,6.16V26c0,.14,0,.28,0,.43,0,3.51-4.62,6.44-9.08,9.28l-.8.51a8.56,8.56,0,0,0-1.11.82,10.46,10.46,0,0,0-4.09,5.11c-1.45-3.67-3-7.84-3-13.35v-.87C25.77,10.87,33.14,3.26,49.68,3.26ZM25.57,57.11c-1.66,1.13-4.46.91-8.1-.66a92.63,92.63,0,0,1-9.06-4.76c-3.34-2.05-4.81-3.61-5.1-5.38-.42-2.61,1.6-6.46,6.35-12.08,3.85-4.56,9.48-11,13.77-15.79a44.6,44.6,0,0,0-.93,9.51v.87c0,6.28,1.88,11,3.38,14.85.94,2.38,1.75,4.44,1.75,6.09,0,.7,0,1.37.08,2h0S27.83,55.57,25.57,57.11Zm32.69,3.83H58c-3.07,0-5.39-.55-7.08-1.68a1.62,1.62,0,0,0-1.8,0c-1.7,1.13-4,1.68-7.08,1.68h-.29C34,60.94,30.9,57.7,30.9,49.76v-.43c0-4.81,1.26-7.95,3.87-9.59l.26-.21a5.45,5.45,0,0,1,.74-.55l.8-.51c5.2-3.31,10.59-6.74,10.59-12,0-.08,0-.16,0-.24a1.16,1.16,0,0,0,0-.13V17.2c0-2.2.67-2.9,2.77-2.9H50c2.1,0,2.77.7,2.77,2.9v9.25c0,5.29,5.39,8.72,10.6,12l.79.51a5,5,0,0,1,.72.53,1.56,1.56,0,0,0,.25.19c2.63,1.63,3.91,4.78,3.91,9.62v.43C69.07,57.59,65.84,60.94,58.26,60.94ZM96.68,46.31c-.28,1.77-1.76,3.33-5.1,5.38a91.85,91.85,0,0,1-9.05,4.76c-3.64,1.57-6.44,1.8-8.11.66-2.26-1.54-2.14-5.29-2.14-5.33h0c0-.65.08-1.32.08-2v-.29c0-1.52.81-3.56,1.74-5.93,1.51-3.86,3.4-8.65,3.4-14.72v-.87a44.57,44.57,0,0,0-.94-9.55c4.3,4.84,9.94,11.26,13.81,15.83C95.09,39.86,97.1,43.71,96.68,46.31Z"/></g></g></svg>