<svg xmlns="http://www.w3.org/2000/svg" viewBox="0 0 75.33 76.61"><defs><style>.cls-1{fill:#fff;}</style></defs><title>bone</title><g id="Layer_2" data-name="Layer 2"><g id="Layer_1-2" data-name="Layer 1"><path class="cls-1" d="M75.32,22.21a11.62,11.62,0,0,0-7.6-11.1,12.09,12.09,0,0,0-1.8-.5h0c-.1,0-.2-.1-.3-.1a.37.37,0,0,1-.1-.3h0a16.25,16.25,0,0,0-.4-1.9,10.56,10.56,0,0,0-2.7-4.7A11.29,11.29,0,0,0,54.32,0a11.51,11.51,0,0,0-11.8,9.7c-.1.5-.1,1-.2,1.5h0l-.2,4.4c0,.3-.1.4-.4.7l-24.6,23.2c-1,.9-1.1,1-2.6.5a13.28,13.28,0,0,0-4-.4,11.56,11.56,0,0,0-6.8,3.1,11.29,11.29,0,0,0-3.6,8.1L0,54.31a11,11,0,0,0,3,8.3,11.5,11.5,0,0,0,4.5,3,5.84,5.84,0,0,0,1.8.4h0c.1,0,.2.1.3.1a.37.37,0,0,1,.1.3h0a16.25,16.25,0,0,0,.4,1.9,10.56,10.56,0,0,0,2.7,4.7,11.29,11.29,0,0,0,8.1,3.6,11.51,11.51,0,0,0,11.8-9.7,12.25,12.25,0,0,0,.2-1.9s.1-2.9.1-3.5a1.61,1.61,0,0,1,.6-1.3c.4-.4,22.3-20.9,25.2-23.6.5-.5.9-.4,1.5-.3a11.62,11.62,0,0,0,15-10.7h0v-3.4Zm-5.7,5.9a8.61,8.61,0,0,1-10.3,1.1.53.53,0,0,0-.8.1l-29.6,27.6a.61.61,0,0,0-.1.8,8.55,8.55,0,1,1-16,2.4h0a.35.35,0,0,0-.4-.4h0A8.37,8.37,0,0,1,5.22,57a8.51,8.51,0,0,1,.4-12,8.61,8.61,0,0,1,10.3-1.1.53.53,0,0,0,.8-.1l29.6-27.6a.61.61,0,0,0,.1-.8,8.55,8.55,0,1,1,16-2.4h0a.35.35,0,0,0,.4.4h0a8.37,8.37,0,0,1,7.2,2.7A8.52,8.52,0,0,1,69.62,28.11Z"/></g></g></svg>